<?xml version="1.0" standalone="no"?>
<!DOCTYPE svg PUBLIC "-//W3C//DTD SVG 20010904//EN"
 "http://www.w3.org/TR/2001/REC-SVG-20010904/DTD/svg10.dtd">
<svg version="1.0" xmlns="http://www.w3.org/2000/svg"
 width="211.000000pt" height="164.000000pt" viewBox="0 0 211.000000 164.000000"
 preserveAspectRatio="xMidYMid meet" style="background: transparent;">

<g transform="translate(0.000000,164.000000) scale(0.100000,-0.100000)"
fill="#000000" stroke="none">
<path d="M1030 1539 c-25 -5 -66 -7 -91 -4 -52 7 -79 -10 -79 -49 0 -35 35
-60 93 -66 l52 -5 -115 -49 c-206 -86 -280 -145 -280 -219 0 -46 24 -72 82
-88 54 -14 138 -8 390 31 106 16 209 30 228 29 34 0 34 -1 -25 -28 -33 -15
-121 -49 -195 -76 -263 -93 -330 -140 -321 -225 1 -8 13 -25 27 -38 32 -28 78
-29 239 -3 158 26 192 28 207 13 30 -30 88 1 88 47 0 12 -11 33 -25 46 -21 22
-33 25 -99 25 -41 0 -109 -7 -152 -15 -43 -8 -79 -13 -81 -12 -1 2 66 28 150
57 281 100 367 156 367 240 0 49 -31 75 -98 85 -44 6 -102 -1 -416 -49 -54 -9
-133 -18 -175 -22 -74 -6 -75 -6 -53 11 13 10 108 55 210 101 201 91 247 120
275 177 15 30 16 40 6 59 -7 13 -17 26 -23 30 -15 10 -130 8 -186 -3z"/>
<path d="M1829 641 l-29 -29 0 -242 c0 -146 4 -249 10 -261 13 -24 61 -49 95
-49 40 0 91 28 104 56 7 15 11 86 11 184 l0 160 -60 0 -60 0 0 -40 c0 -34 3
-40 20 -40 20 0 21 -5 18 -117 -3 -104 -5 -118 -21 -121 -43 -9 -47 9 -47 222
0 110 4 207 9 214 4 8 19 12 32 10 19 -2 25 -10 27 -35 3 -31 6 -33 43 -33 38
0 39 1 39 35 0 74 -43 115 -120 115 -33 0 -48 -6 -71 -29z"/>
<path d="M165 638 c-5 -21 -85 -551 -85 -563 0 -3 17 -5 39 -5 l39 0 12 100
12 100 43 0 43 0 12 -72 c21 -136 17 -128 59 -128 l38 0 -34 193 c-18 105 -41
237 -51 292 l-17 100 -52 3 c-48 3 -53 1 -58 -20z m75 -168 c6 -41 13 -85 16
-97 4 -20 0 -23 -26 -23 -25 0 -30 4 -30 25 0 32 22 177 26 172 2 -1 8 -36 14
-77z"/>
<path d="M460 365 l0 -295 95 0 95 0 0 35 0 35 -55 0 -55 0 0 260 0 260 -40 0
-40 0 0 -295z"/>
<path d="M740 365 l0 -295 40 0 40 0 0 295 0 295 -40 0 -40 0 0 -295z"/>
<path d="M900 365 l0 -295 80 0 c73 0 82 2 111 28 31 28 32 31 37 130 3 76 1
113 -11 149 -10 29 -14 64 -10 90 9 69 -5 133 -37 165 -26 25 -35 28 -99 28
l-71 0 0 -295z m128 148 c3 -62 2 -63 -23 -63 -24 0 -25 2 -25 66 0 62 1 65
23 62 20 -3 22 -9 25 -65z m17 -253 l0 -105 -32 -3 -33 -3 0 111 0 111 33 -3
32 -3 0 -105z"/>
<path d="M1210 365 l0 -295 95 0 95 0 0 35 0 35 -55 0 -55 0 0 260 0 260 -40
0 -40 0 0 -295z"/>
<path d="M1554 650 c-12 -4 -31 -21 -43 -36 -20 -25 -21 -37 -21 -246 0 -238
5 -263 55 -286 46 -21 92 -15 127 17 l33 29 3 221 c3 184 1 225 -13 250 -26
50 -88 73 -141 51z m76 -285 c0 -188 -1 -205 -18 -214 -38 -20 -42 3 -42 214
0 211 4 234 42 214 17 -9 18 -26 18 -214z"/>
</g>
</svg>
